sean_ultralight.sfdir

StartChar: exclam
Encoding: 33 33 1
Width: 395
Flags: MW
HStem: 0 21G<210 233 210 210> 702 20G<210 232 232 232>
VStem: 210 23<0 127 0 127>
LayerCount: 2
Fore
SplineSet
211 229 m 1
 210 722 l 1
 232 722 l 1
 233 229 l 1
 211 229 l 1
210 127 m 1
 233 127 l 1
 233 0 l 1
 210 0 l 1
 210 127 l 1
EndSplineSet
EndChar

StartChar: quotedbl
Encoding: 34 34 2
Width: 430
Flags: MW
HStem: 658 188<90 152 90 152 130 277 130 298>
VStem: 90 248<658 846>
LayerCount: 2
Fore
SplineSet
277 658 m 1
 317 846 l 1
 338 846 l 1
 298 658 l 1
 277 658 l 1
90 658 m 1
 130 846 l 1
 152 846 l 1
 112 658 l 1
 90 658 l 1
EndSplineSet
EndChar

StartChar: numbersign
Encoding: 35 35 3
Width: 649
Flags: MW
HStem: 249 21<40 45> 261 21<373 380 380 394> 472 20<242 249> 478 21<442 449>
LayerCount: 2
Fore
SplineSet
40 249 m 1x80
 45 270 l 1
 160 274 l 1
 221 471 l 1
 109 467 l 1
 114 487 l 1
 228 491 l 1
 295 706 l 1
 316 706 l 1
 249 492 l 1xa0
 449 499 l 1
 519 720 l 1
 540 720 l 1
 470 500 l 1
 576 504 l 1
 573 483 l 1
 463 479 l 1
 401 282 l 1
 505 286 l 1
 501 265 l 1
 394 261 l 1
 323 38 l 1
 302 38 l 1
 373 261 l 1x50
 173 254 l 1
 103 30 l 1
 83 30 l 1
 153 253 l 1
 40 249 l 1x80
242 472 m 1
 180 275 l 1
 380 282 l 1
 442 478 l 1x50
 242 472 l 1
EndSplineSet
EndChar

StartChar: quotesingle
Encoding: 39 39 4
Width: 242
Flags: MW
HStem: 658 188<95 156 95 156>
VStem: 95 61
LayerCount: 2
Fore
SplineSet
95 658 m 1
 135 846 l 1
 156 846 l 1
 116 658 l 1
 95 658 l 1
EndSplineSet
EndChar

StartChar: parenleft
Encoding: 40 40 5
Width: 438
Flags: MW
VStem: 77 22<219 436 219 439>
LayerCount: 2
Fore
SplineSet
338 889 m 1
 185 742 99 548 99 324 c 0
 99 114 184 -88 334 -236 c 1
 319 -252 l 1
 165 -99 77 109 77 326 c 0
 77 552 166 751 320 902 c 1
 338 889 l 1
EndSplineSet
EndChar

StartChar: parenright
Encoding: 41 41 6
Width: 440
Flags: MW
VStem: 320 21<212 433>
LayerCount: 2
Fore
SplineSet
320 321 m 0
 320 545 229 741 74 887 c 1
 89 902 l 1
 249 753 341 552 341 320 c 0
 341 98 249 -115 85 -266 c 1
 68 -253 l 1
 228 -105 320 103 320 321 c 0
EndSplineSet
EndChar

StartChar: plus
Encoding: 43 43 7
Width: 749
Flags: MW
HStem: 311 22<83 368 83 368>
VStem: 368 22<311 311 333 588>
LayerCount: 2
Fore
SplineSet
83 311 m 1
 83 333 l 1
 368 333 l 1
 368 588 l 1
 390 588 l 1
 390 332 l 1
 664 332 l 1
 664 311 l 1
 390 311 l 1
 389 18 l 1
 367 18 l 1
 368 311 l 1
 83 311 l 1
EndSplineSet
EndChar

StartChar: comma
Encoding: 44 44 8
Width: 313
Flags: MW
HStem: -99 191<62 194 62 194>
VStem: 62 132
LayerCount: 2
Fore
SplineSet
62 -99 m 1
 171 92 l 1
 194 92 l 1
 83 -99 l 1
 62 -99 l 1
EndSplineSet
EndChar

StartChar: hyphen
Encoding: 45 45 9
Width: 379
Flags: MW
HStem: 261 22<43 334 43 334>
VStem: 43 291<261 283 261 283>
LayerCount: 2
Fore
SplineSet
43 283 m 1
 334 283 l 1
 334 261 l 1
 43 261 l 1
 43 283 l 1
EndSplineSet
EndChar

StartChar: period
Encoding: 46 46 10
Width: 316
Flags: MW
HStem: 0 147<146 168 146 168>
VStem: 146 22<0 147 0 147>
LayerCount: 2
Fore
SplineSet
146 147 m 1
 168 147 l 1
 168 0 l 1
 146 0 l 1
 146 147 l 1
EndSplineSet
EndChar

StartChar: slash
Encoding: 47 47 11
Width: 559
Flags: W
LayerCount: 2
Fore
SplineSet
81 -68 m 1
 59 -68 l 1
 485 844 l 1
 507 844 l 1
 81 -68 l 1
EndSplineSet
EndChar

StartChar: zero
Encoding: 48 48 12
Width: 571
Flags: MW
HStem: 0 21<283 283 283 285> 515 22<227 287 286 287 286 289>
VStem: 70 22<206.5 336.5 206.5 343> 479 22<209 339>
LayerCount: 2
Fore
SplineSet
92 272 m 0
 92 141 167 21 283 21 c 0
 399 21 479 142 479 276 c 0
 479 402 405 513 289 515 c 1
 286 515 l 2
 168 515 92 401 92 272 c 0
283 0 m 1
 157 1 70 128 70 273 c 0
 70 413 156 537 286 537 c 2
 287 537 l 1
 416 536 501 412 501 273 c 0
 501 127 411 0 285 0 c 2
 283 0 l 1
EndSplineSet
EndChar

StartChar: one
Encoding: 49 49 13
Width: 297
Flags: MW
HStem: 0 21G<192 214 192 192>
VStem: 192 22<0 0>
LayerCount: 2
Fore
SplineSet
191 464 m 1
 213 464 l 1
 214 0 l 1
 192 0 l 1
 191 437 l 1
 -3 283 l 1
 -18 298 l 1
 191 464 l 1
EndSplineSet
EndChar

StartChar: two
Encoding: 50 50 14
Width: 434
Flags: MW
HStem: 30 21<-3 72.5 96 443 -3 72.5> 520 21<168.5 252>
VStem: 342 19<361.5 413.5>
LayerCount: 2
Fore
SplineSet
342 375 m 0
 342 452 297 520 207 520 c 0
 130 520 83 451 37 375 c 1
 20 387 l 1
 70 470 125 541 208 541 c 0
 310 541 361 464 361 378 c 0
 361 345 354 310 341 275 c 0
 295 154 211 75 96 51 c 1
 443 51 l 1
 443 30 l 1
 -3 30 l 1
 -3 51 l 1
 148 51 256 130 318 268 c 0
 334 305 342 342 342 375 c 0
EndSplineSet
EndChar

StartChar: three
Encoding: 51 51 15
Width: 520
Flags: MW
HStem: -236 21<164 241.5 164 248> 119 22<124 161 124 195.5> 489 20<156 243>
VStem: 383 22<279.5 378.5> 420 23<-91.5 -31>
LayerCount: 2
Fore
SplineSet
383 325 m 0
 383 432 300 489 186 489 c 0
 124 489 70 465 22 417 c 1
 13 432 l 1
 64 483 123 509 189 509 c 0
 313 509 405 446 405 327 c 0
 405 232 342 167 248 137 c 1
 324 129 389 104 425 31 c 0
 437 6 443 -18 443 -42 c 0
 443 -154 309 -236 187 -236 c 0
 137 -236 88 -224 43 -200 c 1
 52 -181 l 1
 94 -204 141 -215 187 -215 c 0
 296 -215 420 -142 420 -41 c 0
 420 -21 415 0 405 21 c 0
 361 114 266 119 161 119 c 2
 124 119 l 1
 124 141 l 1
 267 141 383 206 383 325 c 0
EndSplineSet
EndChar

StartChar: four
Encoding: 52 52 16
Width: 603
Flags: MW
HStem: 70 22<25 387 0 0 409 595> 507 20G<387 409 409 409>
VStem: 387 22<-222 70 -222 70 92 497 497 497>
LayerCount: 2
Fore
SplineSet
25 92 m 1
 387 92 l 1
 387 497 l 1
 25 92 l 1
0 92 m 1
 387 527 l 1
 409 527 l 1
 409 523 l 1
 410 523 l 1
 409 522 l 1
 409 92 l 1
 595 92 l 1
 595 70 l 1
 409 70 l 1
 409 -222 l 1
 387 -222 l 1
 387 70 l 1
 0 70 l 1
 0 92 l 1
EndSplineSet
EndChar

StartChar: five
Encoding: 53 53 17
Width: 501
Flags: MW
HStem: -237 23<205.5 283 205.5 291> 188 21<195.5 253> 512 22<125 435 125 125>
VStem: 102 21<180 180> 425 22<-77.5 -9.5>
LayerCount: 2
Fore
SplineSet
88 -174 m 1
 136 -202 184 -214 227 -214 c 0
 339 -214 425 -132 425 -23 c 0
 425 4 420 33 408 63 c 0
 373 154 299 188 207 188 c 0
 180 188 152 185 123 180 c 1
 102 180 l 1
 103 534 l 1
 435 534 l 1
 435 512 l 1
 125 512 l 1
 123 201 l 1
 153 206 182 209 209 209 c 0
 311 209 392 169 430 68 c 0
 442 36 447 6 447 -23 c 0
 447 -145 353 -237 229 -237 c 0
 182 -237 129 -223 77 -193 c 1
 88 -174 l 1
EndSplineSet
EndChar

StartChar: six
Encoding: 54 54 18
Width: 584
Flags: MW
HStem: -7 23<254.5 355 254.5 359.5> 317 18<257 341.5> 687 20<516 525>
VStem: 77 22<245 249 245 298> 476 24<122.5 211>
LayerCount: 2
Fore
SplineSet
294 335 m 0
 404 335 500 273 500 166 c 0
 500 70 412 -7 307 -7 c 0
 171 -7 77 110 77 246 c 0
 77 350 134 446 209 522 c 0
 294 609 399 673 516 707 c 1
 525 687 l 1
 413 655 312 596 230 515 c 0
 156 442 99 350 99 249 c 2
 99 245 l 1
 148 303 220 335 294 335 c 0
476 164 m 0
 476 258 391 317 292 317 c 0
 216 317 145 280 101 216 c 1
 114 108 199 16 310 16 c 0
 400 16 476 81 476 164 c 0
EndSplineSet
EndChar

StartChar: seven
Encoding: 55 55 19
Width: 561
Flags: MW
HStem: 453 21<61 526>
LayerCount: 2
Fore
SplineSet
61 474 m 1
 526 474 l 1
 526 452 l 1
 126 -222 l 1
 103 -222 l 1
 501 452 l 1
 61 453 l 1
 61 474 l 1
EndSplineSet
EndChar

StartChar: eight
Encoding: 56 56 20
Width: 571
Flags: MW
HStem: -4 21<287 289 287 287> 631 21<248.5 324.5>
VStem: 104 22<157 197> 119 20<475 551.5 475 556.5> 439 22<470 545> 458 19<112 196.5>
LayerCount: 2
Fore
SplineSet
285 631 m 0xd8
 212 631 139 591 139 512 c 0
 139 438 215 386 294 349 c 1
 367 383 439 433 439 506 c 0
 439 584 364 631 285 631 c 0xd8
285 652 m 0
 377 652 461 598 461 508 c 0xd8
 461 432 391 375 316 339 c 1
 398 300 477 244 477 155 c 0
 477 62 388 -4 289 -4 c 2
 287 -4 l 1
 190 -2 104 61 104 152 c 0xe4
 104 242 187 296 272 338 c 1
 193 377 119 433 119 512 c 0
 119 601 199 652 285 652 c 0
293 17 m 0
 378 17 458 69 458 155 c 0
 458 238 375 290 294 328 c 1
 212 288 126 241 126 157 c 1xe4
 125 74 205 17 293 17 c 0
EndSplineSet
EndChar

StartChar: nine
Encoding: 57 57 21
Width: 589
Flags: MW
HStem: -201 21<84 92> 112 22<245 326.5> 449 23<235 335.5>
VStem: 91 24<246 336 246 340.5>
LayerCount: 2
Fore
SplineSet
283 472 m 0
 416 472 500 358 500 231 c 0
 500 128 443 36 368 -37 c 0
 291 -113 196 -169 92 -201 c 1
 84 -180 l 1
 186 -150 280 -94 357 -19 c 1
 421 45 473 124 479 212 c 1
 436 149 364 112 289 112 c 0
 180 112 91 182 91 290 c 0
 91 391 178 472 283 472 c 0
115 293 m 0
 115 199 196 134 294 134 c 0
 371 134 442 176 479 244 c 1
 473 355 391 449 280 449 c 0
 190 449 115 379 115 293 c 0
EndSplineSet
EndChar

StartChar: colon
Encoding: 58 58 22
Width: 342
Flags: MW
HStem: 0 21G<162 184 162 162>
VStem: 162 22<0 146 0 146 341 487>
LayerCount: 2
Fore
SplineSet
162 146 m 1
 184 146 l 1
 184 0 l 1
 162 0 l 1
 162 146 l 1
162 487 m 1
 184 487 l 1
 184 341 l 1
 162 341 l 1
 162 487 l 1
EndSplineSet
EndChar

StartChar: semicolon
Encoding: 59 59 23
Width: 313
Flags: MW
VStem: 165 22<341 487 341 487>
LayerCount: 2
Fore
SplineSet
165 341 m 1
 165 487 l 1
 187 487 l 1
 187 341 l 1
 165 341 l 1
62 -95 m 1
 172 92 l 1
 194 92 l 1
 83 -95 l 1
 62 -95 l 1
EndSplineSet
EndChar

StartChar: less
Encoding: 60 60 24
Width: 811
Flags: W
LayerCount: 2
Fore
SplineSet
117 300 m 1
 711 47 l 1
 711 25 l 1
 92 289 l 1
 92 311 l 1
 701 581 l 1
 701 559 l 1
 117 300 l 1
EndSplineSet
EndChar

StartChar: equal
Encoding: 61 61 25
Width: 832
Flags: MW
HStem: 207 21<95 724 95 724> 429 21<95 724 95 724>
LayerCount: 2
Fore
SplineSet
95 228 m 1
 724 228 l 1
 724 207 l 1
 95 207 l 1
 95 228 l 1
95 450 m 1
 724 450 l 1
 724 429 l 1
 95 429 l 1
 95 450 l 1
EndSplineSet
EndChar

StartChar: greater
Encoding: 62 62 26
Width: 811
Flags: W
LayerCount: 2
Fore
SplineSet
109 25 m 1
 109 47 l 1
 695 301 l 1
 95 559 l 1
 95 581 l 1
 720 312 l 1
 720 290 l 1
 109 25 l 1
EndSplineSet
EndChar

StartChar: question
Encoding: 63 63 27
Width: 541
Flags: MW
HStem: 684 20<250.5 307>
VStem: 240 23<-10 120> 436 18<454.5 557.5>
LayerCount: 2
Fore
SplineSet
242 328 m 1
 344 328 436 401 436 508 c 0
 436 607 354 684 260 684 c 0
 241 684 221 681 202 674 c 1
 195 694 l 1
 216 701 237 704 257 704 c 0
 363 704 454 617 454 507 c 0
 454 394 366 318 264 308 c 1
 263 226 l 1
 241 226 l 1
 242 313 l 1
 242 328 l 1
263 -10 m 1
 240 -10 l 1
 240 120 l 1
 263 120 l 1
 263 -10 l 1
EndSplineSet
EndChar

StartChar: at
Encoding: 64 64 28
Width: 848
Flags: MW
HStem: -135 21<434 443 434 443> 46 19<603.5 659 603.5 663.5> 61 17<370 429> 369 19<394 467.5> 532 20<341 522.5>
VStem: 67 21<118 301.5 118 306.5> 254 22<174 256 174 260.5> 553 20<260.5 308> 758 21<193 328>
LayerCount: 2
Fore
SplineSet
758 246 m 0xdf80
 758 410 610 532 435 532 c 0
 247 532 88 393 88 210 c 0
 88 26 250 -114 439 -114 c 2
 443 -114 l 2
 533 -114 620 -80 687 -20 c 1
 701 -36 l 1
 628 -100 535 -135 438 -135 c 2
 434 -135 l 1
 236 -132 67 14 67 209 c 0
 67 404 236 552 435 552 c 0
 622 552 779 421 779 248 c 0
 779 132 702 46 625 46 c 0xdf80
 576 46 538 81 529 122 c 1
 500 84 453 61 405 61 c 0xbf80
 318 61 254 125 254 212 c 0
 254 309 338 388 439 388 c 0
 507 388 573 351 573 281 c 0
 573 240 551 200 548 158 c 1
 549 157 l 1
 548 155 547 153 547 150 c 0
 547 104 580 65 627 65 c 0
 691 65 758 140 758 246 c 0xdf80
276 213 m 0
 276 135 332 78 408 78 c 0xbf80
 460 78 506 109 526 157 c 1
 529 199 553 237 553 277 c 0
 553 339 496 369 439 369 c 0
 349 369 276 299 276 213 c 0
EndSplineSet
EndChar

StartChar: A
Encoding: 65 65 29
Width: 753
Flags: MW
HStem: 0 21G<70 94 70 70> 275 21<229 543 229 550 220 543> 701 20G<402 424 424 424>
LayerCount: 2
Fore
SplineSet
543 296 m 1
 411 693 l 1
 229 296 l 1
 543 296 l 1
550 275 m 1
 220 275 l 1
 94 0 l 1
 70 0 l 1
 402 721 l 1
 424 721 l 1
 664 1 l 1
 641 1 l 1
 550 275 l 1
EndSplineSet
EndChar

StartChar: B
Encoding: 66 66 30
Width: 632
Flags: MW
HStem: 0 21<138 273 138 273> 392 20<138 271 138 271> 701 21<138 268 138 138>
VStem: 116 22<21 392 21 412 412 701> 469 22<516 606.5> 515 22<144.5 260.5 137.5 268.5>
LayerCount: 2
Fore
SplineSet
351 403 m 1
 459 382 537 318 537 203 c 0
 537 72 420 0 273 0 c 2
 116 0 l 1
 116 722 l 1
 268 722 l 2
 390 722 491 671 491 558 c 0
 491 474 433 422 351 403 c 1
138 412 m 1
 271 412 l 2
 379 412 469 459 469 556 c 0
 469 657 378 701 268 701 c 2
 138 701 l 1
 138 412 l 1
515 205 m 0
 515 332 405 392 271 392 c 2
 138 392 l 1
 138 21 l 1
 273 21 l 2
 408 21 515 84 515 205 c 0
EndSplineSet
EndChar

StartChar: C
Encoding: 67 67 31
Width: 679
Flags: MW
HStem: -9 21<305 445.5 305 446.5> 709 21<317.5 459>
VStem: 91 22<246.5 455.5 246.5 461>
LayerCount: 2
Fore
SplineSet
392 12 m 0
 499 12 578 51 642 112 c 1
 656 95 l 1
 587 31 502 -9 391 -9 c 0
 204 -9 91 133 91 344 c 0
 91 578 210 730 412 730 c 0
 510 730 586 701 655 652 c 1
 643 634 l 1
 577 683 505 709 413 709 c 0
 222 709 113 565 113 346 c 0
 113 147 218 12 392 12 c 0
EndSplineSet
EndChar

StartChar: D
Encoding: 68 68 32
Width: 697
Flags: MW
HStem: 0 22<113 296 296 304> 700 22<113 113>
VStem: 91 22<22 700 22 722> 596 23<244.5 458>
LayerCount: 2
Fore
SplineSet
277 722 m 2
 504 722 619 585 619 346 c 0
 619 130 516 0 304 0 c 2
 91 0 l 1
 91 722 l 1
 277 722 l 2
596 346 m 0
 596 570 491 701 280 701 c 1
 113 700 l 1
 113 22 l 1
 296 22 l 2
 497 22 596 143 596 346 c 0
EndSplineSet
EndChar

StartChar: E
Encoding: 69 69 33
Width: 605
Flags: MW
HStem: 0 22<142 560 142 560> 362 22<142 445 142 445> 701 21<142 526 142 142>
VStem: 120 22<22 362 384 701>
LayerCount: 2
Fore
SplineSet
120 0 m 1
 120 722 l 1
 526 722 l 1
 526 701 l 1
 142 701 l 1
 142 384 l 1
 445 384 l 1
 445 362 l 1
 142 362 l 1
 142 22 l 1
 560 22 l 1
 560 0 l 1
 120 0 l 1
EndSplineSet
EndChar

StartChar: F
Encoding: 70 70 34
Width: 567
Flags: MW
HStem: 0 21G<120 120 120 142> 362 22<142 459 142 459> 700 22<142 530 142 142>
VStem: 120 22<0 362 384 700>
LayerCount: 2
Fore
SplineSet
120 0 m 1
 120 722 l 1
 530 722 l 1
 530 700 l 1
 142 700 l 1
 142 384 l 1
 459 384 l 1
 459 362 l 1
 142 362 l 1
 142 0 l 1
 120 0 l 1
EndSplineSet
EndChar

StartChar: G
Encoding: 71 71 35
Width: 776
Flags: MW
HStem: -6 21<327 479.5 327 481> 296 22<483 690 483 711> 708 22<321.5 471.5>
VStem: 90 23<256 473.5 256 478.5> 690 21<79 296 296 296>
LayerCount: 2
Fore
SplineSet
432 15 m 0
 527 15 610 36 690 79 c 1
 690 296 l 1
 483 296 l 1
 483 318 l 1
 711 318 l 1
 711 71 l 1
 627 22 533 -6 429 -6 c 0
 208 -6 90 130 90 365 c 0
 90 592 209 730 418 730 c 0
 528 730 614 701 696 650 c 1
 686 631 l 1
 607 681 524 708 419 708 c 0
 224 708 113 579 113 368 c 0
 113 144 222 15 432 15 c 0
EndSplineSet
EndChar

StartChar: H
Encoding: 72 72 36
Width: 755
Flags: MW
HStem: 0 21G<102 124 102 102 628 650 628 628> 351 22<125 628 125 628 124 628> 702 20G<103 125 125 125 628 650 650 650>
VStem: 102 22<0 351> 628 22<0 351 351 351 373 722 0 722>
LayerCount: 2
Fore
SplineSet
628 722 m 1
 650 722 l 1
 650 0 l 1
 628 0 l 1
 628 351 l 1
 124 351 l 1
 124 0 l 1
 102 0 l 1
 103 722 l 1
 125 722 l 1
 125 373 l 1
 628 373 l 1
 628 722 l 1
EndSplineSet
EndChar

StartChar: I
Encoding: 73 73 37
Width: 236
Flags: MW
HStem: 0 21G<105 105 105 127> 702 20G<106 128 128 128>
VStem: 105 22<0 0>
LayerCount: 2
Fore
SplineSet
105 0 m 1
 106 722 l 1
 128 722 l 1
 127 0 l 1
 105 0 l 1
EndSplineSet
EndChar

StartChar: J
Encoding: 74 74 38
Width: 298
Flags: MW
HStem: -217 21<13 79.5 13 82.5> 702 20G<167 189 189 189>
VStem: 167 22<0 722>
LayerCount: 2
Fore
SplineSet
189 0 m 2
 189 -103 137 -217 28 -217 c 0
 -9 -217 -45 -200 -69 -171 c 1
 -58 -152 l 1
 -38 -181 -4 -196 30 -196 c 0
 129 -196 167 -89 167 0 c 2
 167 722 l 1
 189 722 l 1
 189 0 l 2
EndSplineSet
EndChar

StartChar: K
Encoding: 75 75 39
Width: 660
Flags: MW
HStem: 0 21G<105 105 105 127 562 562 562 587> 702 20G<105 127 127 127 534 559 559 559>
VStem: 105 22<0 374 390 391 399 722>
LayerCount: 2
Fore
SplineSet
105 0 m 1
 105 722 l 1
 127 722 l 1
 127 399 l 1
 534 722 l 1
 559 722 l 1
 144 387 l 1
 587 0 l 1
 562 0 l 1
 127 374 l 1
 127 0 l 1
 105 0 l 1
127 390 m 1
 128 391 l 1
 127 391 l 1
 127 390 l 1
EndSplineSet
EndChar

StartChar: L
Encoding: 76 76 40
Width: 560
Flags: MW
HStem: 0 22<127 537 127 537> 702 20G<105 127 127 127>
VStem: 105 22<22 722 22 722 22 722>
LayerCount: 2
Fore
SplineSet
105 0 m 1
 105 722 l 1
 127 722 l 1
 127 22 l 1
 537 22 l 1
 537 0 l 1
 105 0 l 1
EndSplineSet
EndChar

StartChar: M
Encoding: 77 77 41
Width: 876
Flags: MW
HStem: 0 21G<71 93 71 71 400 422 400 400 760 760 760 782> 702 20G<126 148 148 148 694 716 716 716>
LayerCount: 2
Fore
SplineSet
698 677 m 1
 422 0 l 1
 400 0 l 1
 144 676 l 1
 93 0 l 1
 71 0 l 1
 126 722 l 1
 148 722 l 1
 409 23 l 1
 694 722 l 1
 716 722 l 1
 782 0 l 1
 760 0 l 1
 698 677 l 1
EndSplineSet
EndChar

StartChar: N
Encoding: 78 78 42
Width: 764
Flags: MW
HStem: 0 21G<105 105 105 127 645 645 645 667> 702 20G<105 127 127 127 645 667 667 667>
VStem: 105 22<0 691 0 722> 645 22<0 722 31 722 0 722>
LayerCount: 2
Fore
SplineSet
105 0 m 1
 105 722 l 1
 127 722 l 1
 645 31 l 1
 645 722 l 1
 667 722 l 1
 667 0 l 1
 645 0 l 1
 127 691 l 1
 127 0 l 1
 105 0 l 1
EndSplineSet
EndChar

StartChar: O
Encoding: 79 79 43
Width: 758
Flags: MW
HStem: -6 21<290 471 290 476> 707 21<288 467.5>
VStem: 79 21<260.5 455.5 260.5 462> 657 21<359 365 359 459.5>
LayerCount: 2
Fore
SplineSet
378 707 m 0
 198 707 100 554 100 357 c 0
 100 164 202 15 378 15 c 0
 564 15 657 170 657 363 c 0
 657 556 557 707 378 707 c 0
79 358 m 0
 79 566 187 728 379 728 c 0
 572 728 678 569 678 365 c 2
 678 359 l 1
 677 156 573 -6 379 -6 c 0
 188 -6 79 153 79 358 c 0
EndSplineSet
EndChar

StartChar: P
Encoding: 80 80 44
Width: 550
Flags: MW
HStem: 0 21G<105 127 105 105> 284 23<244 269> 701 21<127 245 127 127>
VStem: 105 22<0 322 346 701> 467 23<439 560.5>
LayerCount: 2
Fore
SplineSet
245 722 m 2
 382 722 490 642 490 494 c 0
 490 372 399 285 269 284 c 0
 219 284 170 297 127 322 c 1
 127 0 l 1
 105 0 l 1
 105 722 l 1
 245 722 l 2
467 494 m 0
 467 627 371 701 245 701 c 2
 127 701 l 1
 127 346 l 1
 168 320 216 307 264 307 c 0
 386 307 467 384 467 494 c 0
EndSplineSet
EndChar

StartChar: Q
Encoding: 81 81 45
Width: 765
Flags: MW
HStem: -240 21<784 784> -6 20<292.5 477> 707 21<287 471>
VStem: 73 21<364 460 364 467.5> 669 21<260 454>
LayerCount: 2
Fore
SplineSet
396 -6 m 1
 473 -119 611 -213 784 -219 c 1
 784 -240 l 1
 601 -234 453 -129 374 -6 c 1
 186 -2 73 157 73 366 c 0
 73 569 184 728 381 728 c 0
 577 728 690 568 690 356 c 0
 690 157 585 2 396 -6 c 1
380 707 m 0
 194 707 94 556 94 364 c 0
 95 166 203 14 382 14 c 0
 572 14 669 166 669 354 c 0
 669 554 562 707 380 707 c 0
EndSplineSet
EndChar

StartChar: R
Encoding: 82 82 46
Width: 674
Flags: MW
HStem: 0 21G<123 123 123 145 649 649 649 674> 339 22<145 256 145 256> 701 21<145 282 145 145>
VStem: 123 22<0 339 361 701> 502 22<485.5 590>
LayerCount: 2
Fore
SplineSet
123 0 m 1
 123 722 l 1
 282 722 l 2
 416 722 524 660 524 535 c 0
 524 436 455 375 359 351 c 1
 674 0 l 1
 649 0 l 1
 337 346 l 1
 311 341 284 339 256 339 c 2
 145 339 l 1
 145 0 l 1
 123 0 l 1
145 361 m 1
 256 361 l 2
 390 361 502 414 502 535 c 0
 502 645 403 701 282 701 c 2
 145 701 l 1
 145 361 l 1
EndSplineSet
EndChar

StartChar: S
Encoding: 83 83 47
Width: 570
Flags: MW
HStem: -6 21<235.5 323.5 235.5 327> 709 21<227.5 309.5>
VStem: 91 22<577 620.5 531 626> 458 22<113.5 217 107 263>
LayerCount: 2
Fore
SplineSet
460 653 m 1
 405 686 346 709 273 709 c 0
 182 709 113 660 113 581 c 0
 113 481 204 435 284 391 c 0
 378 338 480 275 480 159 c 0
 480 55 386 -6 268 -6 c 0
 195 -6 128 11 64 39 c 1
 72 59 l 1
 134 31 200 15 271 15 c 0
 376 15 458 67 458 160 c 0
 458 366 121 368 93 556 c 0
 92 565 91 573 91 581 c 0
 91 671 170 730 274 730 c 0
 351 730 412 707 469 673 c 1
 460 653 l 1
EndSplineSet
EndChar

StartChar: T
Encoding: 84 84 48
Width: 617
Flags: MW
HStem: 0 21G<272 294 272 272> 706 22<-10 621 -10 272 294 294 294 621>
VStem: 272 22<0 706 0 706>
LayerCount: 2
Fore
SplineSet
-10 706 m 1
 -10 728 l 1
 621 728 l 1
 621 706 l 1
 294 706 l 1
 294 0 l 1
 272 0 l 1
 272 706 l 1
 -10 706 l 1
EndSplineSet
EndChar

StartChar: U
Encoding: 85 85 49
Width: 702
Flags: MW
HStem: -6 22<288 435.5 288 439> 702 20G<97 119 119 119 597 619 619 619>
VStem: 97 21<281 285 206.5 722> 597 22<269 273 273 722>
LayerCount: 2
Fore
SplineSet
97 722 m 1
 119 722 l 1
 118 285 l 2
 118 128 212 16 364 16 c 0
 507 16 597 121 597 269 c 2
 597 722 l 1
 619 722 l 1
 619 273 l 2
 619 110 518 -6 360 -6 c 0
 197 -6 97 114 97 281 c 2
 97 722 l 1
EndSplineSet
EndChar

StartChar: V
Encoding: 86 86 50
Width: 723
Flags: MW
HStem: 0 21G<376 398 376 376> 702 20G<82 104 104 104 669 691 691 691>
LayerCount: 2
Fore
SplineSet
691 722 m 1
 398 0 l 1
 376 0 l 1
 82 722 l 1
 104 722 l 1
 388 30 l 1
 669 722 l 1
 691 722 l 1
EndSplineSet
EndChar

StartChar: W
Encoding: 87 87 51
Width: 967
Flags: MW
HStem: 0 21G<309 329 309 309 673 693 673 673> 702 20G<71 93 93 93 489 507 507 507 871 891 891 891>
LayerCount: 2
Fore
SplineSet
891 722 m 1
 693 0 l 1
 673 0 l 1
 499 689 l 1
 329 0 l 1
 309 0 l 1
 71 722 l 1
 93 722 l 1
 317 31 l 1
 489 722 l 1
 507 722 l 1
 682 33 l 1
 871 722 l 1
 891 722 l 1
EndSplineSet
EndChar

StartChar: X
Encoding: 88 88 52
Width: 687
Flags: MW
HStem: 0 21G<54 76 54 54 575 597 575 575> 702 20G<97 119 119 119 606 628 628 628>
LayerCount: 2
Fore
SplineSet
97 722 m 1
 119 722 l 1
 343 384 l 1
 606 722 l 1
 628 722 l 1
 355 366 l 1
 597 0 l 1
 575 0 l 1
 343 350 l 1
 76 0 l 1
 54 0 l 1
 332 367 l 1
 97 722 l 1
EndSplineSet
EndChar

StartChar: Y
Encoding: 89 89 53
Width: 617
Flags: MW
HStem: 0 21G<304 326 304 304> 702 20G<62 84 84 84 557 579 579 579>
VStem: 304 22<0 329 329 329>
LayerCount: 2
Fore
SplineSet
557 722 m 1
 579 722 l 1
 326 342 l 1
 326 0 l 1
 304 0 l 1
 304 329 l 1
 62 722 l 1
 84 722 l 1
 311 358 l 1
 557 722 l 1
EndSplineSet
EndChar

StartChar: Z
Encoding: 90 90 54
Width: 664
Flags: MW
HStem: 15 22<51 632 28 28> 678 22<95 607>
LayerCount: 2
Fore
SplineSet
95 678 m 1
 95 700 l 1
 607 700 l 1
 607 679 l 1
 51 37 l 1
 632 37 l 1
 632 15 l 1
 28 15 l 1
 28 37 l 1
 584 679 l 1
 95 678 l 1
EndSplineSet
EndChar

StartChar: underscore
Encoding: 95 95 55
Width: 703
Flags: MW
HStem: -218 22<9 691 9 691>
LayerCount: 2
Fore
SplineSet
9 -196 m 1
 691 -196 l 1
 691 -218 l 1
 9 -218 l 1
 9 -196 l 1
EndSplineSet
EndChar

StartChar: grave
Encoding: 96 96 56
Width: 321
Flags: MW
HStem: 656 190<84 236 84 257>
VStem: 84 173
LayerCount: 2
Fore
SplineSet
236 656 m 1
 84 846 l 1
 106 846 l 1
 257 656 l 1
 236 656 l 1
EndSplineSet
EndChar

StartChar: a
Encoding: 97 97 57
Width: 596
Flags: MW
HStem: -7 22<177 259.5> 0 21G<435 457 435 435> 296 17<285 362> 525 21<215.5 302>
VStem: 55 22<106 211.5 106 218> 435 22<0 122 122 122 152 294 294 294 312 341 341 347 0 395.5>
LayerCount: 2
Fore
SplineSet
435 341 m 2xbc
 435 450 364 525 240 525 c 0
 191 525 143 510 107 476 c 1
 93 492 l 1
 133 530 186 546 240 546 c 0
 375 546 457 467 457 347 c 2
 457 0 l 1
 435 0 l 1x7c
 435 122 l 1
 380 47 303 -7 216 -7 c 0
 116 -7 55 54 55 145 c 0
 55 291 201 313 369 313 c 0
 391 313 413 313 435 312 c 1
 435 341 l 2xbc
77 146 m 0
 77 66 134 15 220 15 c 0xbc
 309 15 384 75 435 152 c 1
 435 294 l 1
 406 295 376 296 348 296 c 0
 201 296 77 277 77 146 c 0
EndSplineSet
EndChar

StartChar: b
Encoding: 98 98 58
Width: 589
Flags: MW
HStem: -5 18<242 350.5 237 356> 523 18<252 357.5> 763 20G<89 111 111 111>
VStem: 89 22<0 96 140 390 432 783> 495 21
LayerCount: 2
Fore
SplineSet
516 271 m 0
 516 117 432 -5 280 -5 c 0
 204 -5 142 32 111 96 c 1
 111 0 l 1
 89 0 l 1
 89 783 l 1
 111 783 l 1
 111 432 l 1
 146 499 213 541 291 541 c 0
 444 541 516 416 516 271 c 0
111 140 m 1
 133 61 196 13 278 13 c 0
 423 13 493 130 495 267 c 1
 496 406 427 523 288 523 c 0
 204 523 134 471 111 390 c 1
 111 140 l 1
EndSplineSet
EndChar

StartChar: c
Encoding: 99 99 59
Width: 464
Flags: MW
HStem: -8 23<224 323 224 324.5> 519 21<228.5 324.5>
VStem: 70 22<198.5 334.5 198.5 342>
LayerCount: 2
Fore
SplineSet
92 267 m 0
 92 130 154 15 294 15 c 0
 352 15 406 42 442 89 c 1
 457 74 l 1
 417 21 357 -8 292 -8 c 0
 139 -8 70 120 70 267 c 0
 70 417 147 540 300 540 c 0
 354 540 404 520 444 483 c 1
 432 466 l 1
 396 500 349 519 300 519 c 0
 157 519 92 402 92 267 c 0
EndSplineSet
EndChar

StartChar: d
Encoding: 100 100 60
Width: 621
Flags: MW
HStem: -6 17<248 355.5> 518 19<249.5 355 239.5 361> 763 20G<496 518 518 518>
VStem: 76 22<192 335.5 192 342> 498 22<389 403 403 403 433 455 342.5 491.5>
LayerCount: 2
Fore
SplineSet
312 537 m 0
 398 537 462 499 498 433 c 1
 498 550 497 667 496 783 c 1
 518 783 l 1
 519 652 520 521 520 389 c 0
 520 296 519 202 519 109 c 0
 519 73 518 36 518 0 c 1
 496 0 l 1
 496 36 497 73 497 109 c 2
 497 110 l 1
 467 38 399 -6 312 -6 c 0
 164 -6 76 112 76 264 c 0
 76 420 167 537 312 537 c 0
321 518 m 0
 178 518 98 407 98 264 c 0
 98 120 180 11 316 11 c 0
 412 11 482 70 497 159 c 1
 497 236 498 312 498 389 c 2
 498 403 l 1
 465 477 401 518 321 518 c 0
EndSplineSet
EndChar

StartChar: e
Encoding: 101 101 61
Width: 554
Flags: MW
HStem: -7 23<236 331.5> 274 19<89 451 89 451 89 471> 519 22<218.5 334.5>
VStem: 67 22<274 274 274 293 274 354.5> 451 21<301.5 305 305 366>
LayerCount: 2
Fore
SplineSet
89 274 m 1
 94 127 167 16 305 16 c 0
 361 16 416 39 456 79 c 1
 470 64 l 1
 425 18 363 -7 300 -7 c 0
 145 -7 67 121 67 281 c 0
 67 428 148 541 277 541 c 0
 409 541 472 441 472 307 c 0
 472 296 472 285 471 274 c 1
 89 274 l 1
451 305 m 2
 451 427 393 519 276 519 c 0
 161 519 91 420 89 293 c 1
 451 293 l 1
 451 305 l 2
EndSplineSet
EndChar

StartChar: f
Encoding: 102 102 62
Width: 460
Flags: MW
HStem: 0 21G<203 225 203 203> 486 22<29 203 29 203 225 450> 777 22<330.5 387 320.5 390>
VStem: 203 22<0 486 0 486 508 593>
LayerCount: 2
Fore
SplineSet
225 508 m 1
 450 508 l 1
 450 486 l 1
 225 486 l 1
 225 0 l 1
 203 0 l 1
 203 486 l 1
 29 486 l 1
 29 508 l 1
 203 508 l 1
 203 593 l 2
 203 724 268 799 373 799 c 0
 401 799 431 794 464 783 c 1
 456 764 l 1
 428 773 402 777 378 777 c 0
 283 777 225 710 225 593 c 2
 225 508 l 1
EndSplineSet
EndChar

StartChar: g
Encoding: 103 103 63
Width: 582
Flags: MW
HStem: -293 21<193 306.5 193 306.5> 21 19 194 20<245 267 262 267> 464 21<418 572 418 418> 519 20<266 268 266 266>
VStem: 45 21<-176 -98> 76 20<97 145.5> 81 22<331 406.5 318 411.5> 430 20<322.5 386 319 409.5> 490 19<-158.5 -65>
LayerCount: 2
Fore
SplineSet
490 -109 m 0xfcc0
 490 -21 408 25 326 25 c 0
 284 25 242 21 206 21 c 0
 192 21 179 22 167 23 c 1
 107 -1 66 -60 66 -127 c 0
 66 -225 142 -272 244 -272 c 0
 369 -272 490 -208 490 -109 c 0xfcc0
236 -293 m 0
 126 -293 45 -242 45 -132 c 0
 45 -64 84 -3 144 27 c 1
 107 37 76 65 76 121 c 0xfec0
 76 170 110 213 158 224 c 1
 113 253 81 299 81 363 c 0xfdc0
 81 460 165 539 268 539 c 0
 321 539 367 519 400 485 c 1
 572 485 l 1
 572 464 l 1
 418 464 l 1
 438 437 450 404 450 368 c 0
 450 270 365 194 264 194 c 2
 262 194 l 2
 228 194 197 203 169 218 c 1
 127 209 96 171 96 127 c 0xfec0
 96 67 132 45 176 40 c 1
 177 40 l 1
 183 38 194 39 202 39 c 0
 241 39 287 45 334 45 c 0
 424 45 509 -9 509 -106 c 0
 509 -217 377 -293 236 -293 c 0
103 364 m 0xfdc0
 103 272 181 214 265 214 c 2
 267 214 l 1
 353 215 430 278 430 367 c 0
 430 452 356 519 268 519 c 2
 266 519 l 1
 176 518 103 449 103 364 c 0xfdc0
EndSplineSet
EndChar

StartChar: h
Encoding: 104 104 64
Width: 573
Flags: MW
HStem: 0 21G<95 116 95 95 455 455 455 476> 525 23<252.5 334> 763 20G<94 116 116 116>
VStem: 94 22<727 783> 455 21<0 350>
LayerCount: 2
Fore
SplineSet
454 348 m 0
 454 440 387 525 281 525 c 0
 211 525 145 483 116 418 c 1
 116 0 l 1
 95 0 l 1
 94 242 94 485 94 727 c 2
 94 783 l 1
 116 783 l 1
 116 452 l 1
 152 511 218 548 287 548 c 0
 405 548 476 451 476 350 c 2
 476 0 l 1
 455 0 l 1
 454 116 454 232 454 348 c 0
EndSplineSet
EndChar

StartChar: i
Encoding: 105 105 65
Width: 238
Flags: MW
HStem: 0 21G<105 105 105 127> 513 20G<104 126 126 126>
VStem: 104 22<533 533 690 792>
LayerCount: 2
Fore
SplineSet
104 690 m 1
 104 792 l 1
 126 792 l 1
 126 690 l 1
 104 690 l 1
105 0 m 1
 104 533 l 1
 126 533 l 1
 127 0 l 1
 105 0 l 1
EndSplineSet
EndChar

StartChar: j
Encoding: 106 106 66
Width: 347
Flags: MW
HStem: -292 21<39 80 39 85.5> 515 20G<179 201 201 201>
VStem: 179 22<-135 535 683 790>
LayerCount: 2
Fore
SplineSet
179 683 m 1
 179 790 l 1
 201 790 l 1
 201 683 l 1
 179 683 l 1
17 -269 m 1
 26 -271 35 -271 43 -271 c 0
 117 -271 179 -211 179 -135 c 2
 179 535 l 1
 201 535 l 1
 201 -135 l 2
 201 -223 128 -292 43 -292 c 0
 34 -292 26 -291 17 -290 c 1
 17 -269 l 1
EndSplineSet
EndChar

StartChar: k
Encoding: 107 107 67
Width: 600
Flags: MW
HStem: 0 21G<124 124 124 146 509 509 509 537> 513 20G<483 512 512 512> 763 20G<124 146 146 146>
VStem: 124 22<0 273 289 783>
LayerCount: 2
Fore
SplineSet
124 0 m 1
 124 783 l 1
 146 783 l 1
 146 289 l 1
 483 533 l 1
 512 533 l 1
 167 281 l 1
 537 0 l 1
 509 0 l 1
 146 273 l 1
 146 0 l 1
 124 0 l 1
EndSplineSet
EndChar

StartChar: l
Encoding: 108 108 68
Width: 265
Flags: MW
HStem: 1 21G<119 119 119 141> 763 20G<119 141 141 141>
VStem: 119 22<1 783 1 783>
LayerCount: 2
Fore
SplineSet
119 1 m 1
 119 783 l 1
 141 783 l 1
 141 1 l 1
 119 1 l 1
EndSplineSet
EndChar

StartChar: m
Encoding: 109 109 69
Width: 935
Flags: MW
HStem: 1 20G 513 20G<104 126 126 126> 524 23<263 350 263 350.5 611 703>
VStem: 104 22<436 533> 457 22<304.5 369 303.5 413> 809 22<1 1>
LayerCount: 2
Fore
SplineSet
457 365 m 0xbc
 457 461 404 524 297 524 c 0xbc
 220 524 155 480 126 405 c 1
 126 259 125 150 124 0 c 1
 102 0 l 1
 103 159 104 271 104 431 c 2
 104 533 l 1
 126 533 l 1xdc
 126 436 l 1
 159 505 225 547 301 547 c 0
 399 547 459 495 474 421 c 1
 502 499 571 547 651 547 c 0
 777 547 830 464 830 353 c 0
 830 236 830 118 831 1 c 1
 809 1 l 1
 808 118 808 235 808 352 c 0
 808 453 759 524 647 524 c 0
 567 524 501 474 478 393 c 1
 479 384 479 374 479 364 c 0
 479 243 478 122 478 1 c 1
 456 1 l 1
 456 123 457 244 457 365 c 0xbc
EndSplineSet
EndChar

StartChar: n
Encoding: 110 110 70
Width: 585
Flags: MW
HStem: 0 21G<94 116 94 94 466 466 466 488> 513 20G<96 118 118 118> 522 22<262 347>
VStem: 96 22<431 533> 466 22<0 376 376 378 0 420.5>
LayerCount: 2
Fore
SplineSet
466 376 m 2xb8
 466 465 397 522 297 522 c 0xb8
 218 522 151 478 118 403 c 1
 118 268 117 135 116 0 c 1
 94 0 l 1
 96 144 96 287 96 431 c 2
 96 533 l 1
 118 533 l 1xd8
 118 431 l 1
 154 502 222 544 302 544 c 0
 414 544 488 476 488 378 c 2
 488 0 l 1
 466 0 l 1
 466 376 l 2xb8
EndSplineSet
EndChar

StartChar: o
Encoding: 111 111 71
Width: 601
Flags: MW
HStem: -6 23<294 298 294 368> 518 21<295 299 295 359.5>
VStem: 75 22<199.5 342.5 199.5 347.5> 494 21<196 340>
LayerCount: 2
Fore
SplineSet
97 273 m 0
 97 126 161 17 294 17 c 2
 298 17 l 1
 429 18 494 124 494 268 c 0
 494 412 425 518 294 518 c 0
 159 518 97 412 97 273 c 0
296 -6 m 0
 144 -6 75 113 75 270 c 0
 75 425 150 539 295 539 c 2
 299 539 l 1
 443 537 515 425 515 271 c 0
 515 111 440 -6 296 -6 c 0
EndSplineSet
EndChar

StartChar: p
Encoding: 112 112 72
Width: 618
Flags: MW
HStem: -300 21G<95 117 95 95> -6 19<250 356 246.5 362.5> 513 20G<95 117 117 117> 523 17<274 376.5>
VStem: 97 22<55 70 98 126> 515 22<202 341.5>
LayerCount: 2
Fore
SplineSet
537 272 m 0xdc
 537 116 441 -6 284 -6 c 0
 216 -6 160 19 119 70 c 1
 119 -53 118 -176 117 -300 c 1
 95 -300 l 1
 96 -158 97 -16 97 126 c 0
 97 214 97 301 96 389 c 0
 96 437 95 485 95 533 c 1
 117 533 l 1xec
 117 493 118 454 118 414 c 1
 154 489 231 540 317 540 c 0
 461 540 537 412 537 272 c 0xdc
515 276 m 0
 515 407 442 523 311 523 c 0xdc
 216 523 135 452 118 362 c 1
 119 283 119 205 119 126 c 2
 119 98 l 1
 158 42 213 13 280 13 c 0
 432 13 515 128 515 276 c 0
EndSplineSet
EndChar

StartChar: q
Encoding: 113 113 73
Width: 627
Flags: MW
HStem: -300 21G<501 523 501 501> -10 18<279 381> 520 18<262 364 251 369.5>
VStem: 75 22<196.5 345 196.5 351> 501 22<-300 39 39 39 60 431 431 431 456 533 -300 533>
LayerCount: 2
Fore
SplineSet
326 538 m 0
 402 538 460 509 501 456 c 1
 501 533 l 1
 523 533 l 1
 523 -300 l 1
 501 -300 l 1
 501 39 l 1
 456 6 408 -10 354 -10 c 0
 182 -10 75 109 75 276 c 0
 75 426 176 538 326 538 c 0
97 275 m 0
 97 118 199 8 359 8 c 0
 411 8 457 25 501 60 c 1
 501 431 l 1
 461 490 405 520 334 520 c 0
 190 520 97 415 97 275 c 0
EndSplineSet
EndChar

StartChar: r
Encoding: 114 114 74
Width: 387
Flags: MW
HStem: 0 21G<90 112 90 90> 513 20G<90 112 112 112> 518 22<299 356>
VStem: 90 22<0 392 426 533>
LayerCount: 2
Fore
SplineSet
352 518 m 0xb0
 236 518 160 468 112 392 c 1
 112 0 l 1
 90 0 l 1
 90 533 l 1
 112 533 l 1xd0
 112 426 l 1
 162 494 243 540 355 540 c 0
 363 540 372 540 380 539 c 1
 377 517 l 1
 369 518 360 518 352 518 c 0xb0
EndSplineSet
EndChar

StartChar: s
Encoding: 115 115 75
Width: 462
Flags: MW
HStem: -6 21<171 248 171 252> 473 21G<380 380> 519 20<197.5 266>
VStem: 75 20<363.5 441 363.5 447.5> 374 21<86.5 164>
LayerCount: 2
Fore
SplineSet
380 473 m 1
 337 505 294 519 238 519 c 0
 157 519 95 475 95 407 c 0
 95 320 173 296 244 272 c 0
 323 245 395 210 395 127 c 0
 395 35 305 -6 199 -6 c 0
 132 -6 79 11 24 50 c 1
 35 68 l 1
 88 31 139 15 203 15 c 0
 293 15 374 46 374 127 c 0
 374 201 304 229 229 255 c 0
 151 282 75 314 75 408 c 0
 75 487 146 539 240 539 c 0
 300 539 345 524 390 491 c 1
 380 473 l 1
EndSplineSet
EndChar

StartChar: t
Encoding: 116 116 76
Width: 425
Flags: MW
HStem: -6 19<260.5 308> 476 21<25 168 25 168>
VStem: 168 21<139 152 152 476 497 638 638 638>
LayerCount: 2
Fore
SplineSet
25 476 m 1
 25 497 l 1
 168 497 l 1
 168 638 l 1
 189 651 l 1
 189 497 l 1
 416 498 l 1
 416 476 l 1
 189 476 l 1
 189 152 l 2
 189 75 225 13 296 13 c 0
 331 13 366 22 397 40 c 1
 404 22 l 1
 368 4 328 -6 288 -6 c 0
 211 -6 168 58 168 139 c 2
 168 476 l 1
 25 476 l 1
EndSplineSet
EndChar

StartChar: u
Encoding: 117 117 77
Width: 585
Flags: MW
HStem: -11 19<230.5 318> 0 21G<464 486 464 464> 513 20G<100 122 122 122 464 486 486 486>
VStem: 100 22<172 180 180 533> 464 22<0 109 109 109 154 533 0 533>
LayerCount: 2
Fore
SplineSet
122 180 m 2xb8
 122 83 177 8 284 8 c 0xb8
 371 8 446 70 464 154 c 1
 464 533 l 1
 486 533 l 1
 486 0 l 1
 464 0 l 1x78
 464 109 l 1
 431 37 359 -11 277 -11 c 0
 161 -11 100 70 100 172 c 2
 100 533 l 1
 122 533 l 1
 122 180 l 2xb8
EndSplineSet
EndChar

StartChar: v
Encoding: 118 118 78
Width: 555
Flags: MW
HStem: 0 21G<261 261 261 273 252 261> 513 20G<48 70 70 70 474 496 496 496>
LayerCount: 2
Fore
SplineSet
48 533 m 1
 70 533 l 1
 261 21 l 1
 474 533 l 1
 496 533 l 1
 273 0 l 1
 252 0 l 1
 48 533 l 1
EndSplineSet
EndChar

StartChar: w
Encoding: 119 119 79
Width: 927
Flags: MW
HStem: 0 21G<627 627 627 639 618 627> 513 20G<66 88 88 88 447 469 469 469 847 870 870 870>
LayerCount: 2
Fore
SplineSet
66 533 m 1
 88 533 l 1
 275 20 l 1
 447 533 l 1
 469 533 l 1
 627 21 l 1
 847 533 l 1
 870 533 l 1
 639 0 l 1
 618 0 l 1
 458 499 l 1
 290 0 l 1
 268 0 l 1
 66 533 l 1
EndSplineSet
EndChar

StartChar: x
Encoding: 120 120 80
Width: 560
Flags: MW
HStem: 0 21G<60 82 60 60 457 483 457 457> 513 20G<99 124 124 124 463 486 486 486>
LayerCount: 2
Fore
SplineSet
99 533 m 1
 124 533 l 1
 283 297 l 1
 463 533 l 1
 486 533 l 1
 295 279 l 1
 483 0 l 1
 457 0 l 1
 284 258 l 1
 82 0 l 1
 60 0 l 1
 271 277 l 1
 99 533 l 1
EndSplineSet
EndChar

StartChar: y
Encoding: 121 121 81
Width: 565
Flags: MW
HStem: -300 21G<75 98 75 75> 513 20G<56 79 79 79 483 505 505 505>
LayerCount: 2
Fore
SplineSet
56 533 m 1
 79 533 l 1
 271 100 l 1
 483 533 l 1
 505 533 l 1
 98 -300 l 1
 75 -300 l 1
 261 79 l 1
 56 533 l 1
EndSplineSet
EndChar

StartChar: z
Encoding: 122 122 82
Width: 470
Flags: MW
HStem: 0 21<31 461 7 7> 487 22<53 53>
LayerCount: 2
Fore
SplineSet
53 487 m 1
 53 509 l 1
 451 510 l 1
 451 488 l 1
 31 21 l 1
 461 21 l 1
 461 0 l 1
 7 0 l 1
 7 21 l 1
 426 488 l 1
 53 487 l 1
EndSplineSet
EndChar

StartChar: bar
Encoding: 124 124 83
Width: 54
Flags: MW
HStem: -21 20G<14 36 36 36> 1 21G<14 14 14 36> 512 20G<14 36 36 36> 535 21G<14 36 14 14>
VStem: 14 22<-377 -1 -377 -1 1 532 535 847>
LayerCount: 2
Fore
SplineSet
14 847 m 1
 36 847 l 1
 36 535 l 1
 14 535 l 1
 14 847 l 1
14 1 m 1
 14 532 l 1
 36 532 l 1
 36 1 l 1
 14 1 l 1
14 -377 m 1
 14 -1 l 1
 36 -1 l 1
 36 -377 l 1
 14 -377 l 1
EndSplineSet
EndChar
